<svg width="321" height="22" viewBox="0 0 321 22" fill="none" xmlns="http://www.w3.org/2000/svg">
<g clip-path="url(#clip0_28_254)">
<path d="M8.5 3C4.08888 3 0.5 6.58888 0.5 11C0.5 15.4111 4.08888 19 8.5 19C12.9111 19 16.5 15.4111 16.5 11C16.5 6.58888 12.9111 3 8.5 3ZM8.5 18C4.64013 18 1.5 14.8599 1.5 11C1.5 7.14013 4.64013 4 8.5 4C12.3599 4 15.5 7.14013 15.5 11C15.5 14.8599 12.3599 18 8.5 18Z" fill="black"/>
<path d="M9 6.00049H8V11.2075L11.1465 14.354L11.8535 13.647L9 10.7934V6.00049Z" fill="black"/>
</g>
<path d="M29.974 16V13.9H25.004V12.99L29.764 6.2H31.136V12.864H32.592V13.9H31.136V16H29.974ZM26.306 12.864H30.03V7.502L26.306 12.864ZM34.3486 16.07C34.1152 16.07 33.9192 15.9953 33.7606 15.846C33.6112 15.6873 33.5366 15.496 33.5366 15.272C33.5366 15.048 33.6112 14.8613 33.7606 14.712C33.9192 14.5533 34.1152 14.474 34.3486 14.474C34.5726 14.474 34.7592 14.5533 34.9086 14.712C35.0672 14.8613 35.1466 15.048 35.1466 15.272C35.1466 15.496 35.0672 15.6873 34.9086 15.846C34.7592 15.9953 34.5726 16.07 34.3486 16.07ZM40.0084 16.168C39.1404 16.168 38.3891 15.958 37.7544 15.538C37.1291 15.1087 36.6484 14.516 36.3124 13.76C35.9764 12.9947 35.8084 12.108 35.8084 11.1C35.8084 10.092 35.9764 9.21 36.3124 8.454C36.6484 7.68867 37.1291 7.096 37.7544 6.676C38.3891 6.24667 39.1404 6.032 40.0084 6.032C40.8764 6.032 41.6231 6.24667 42.2484 6.676C42.8737 7.096 43.3544 7.68867 43.6904 8.454C44.0264 9.21 44.1944 10.092 44.1944 11.1C44.1944 12.108 44.0264 12.9947 43.6904 13.76C43.3544 14.516 42.8737 15.1087 42.2484 15.538C41.6231 15.958 40.8764 16.168 40.0084 16.168ZM40.0084 15.132C40.5777 15.132 41.0864 14.9733 41.5344 14.656C41.9917 14.3293 42.3464 13.8673 42.5984 13.27C42.8597 12.6633 42.9904 11.94 42.9904 11.1C42.9904 10.26 42.8597 9.54133 42.5984 8.944C42.3464 8.34667 41.9917 7.88933 41.5344 7.572C41.0864 7.24533 40.5777 7.082 40.0084 7.082C39.4297 7.082 38.9164 7.24533 38.4684 7.572C38.0204 7.88933 37.6657 8.34667 37.4044 8.944C37.1431 9.54133 37.0124 10.26 37.0124 11.1C37.0124 11.94 37.1431 12.6633 37.4044 13.27C37.6657 13.8673 38.0204 14.3293 38.4684 14.656C38.9164 14.9733 39.4297 15.132 40.0084 15.132ZM49.7154 16.168C48.8474 16.168 48.0961 15.958 47.4614 15.538C46.8361 15.1087 46.3554 14.516 46.0194 13.76C45.6834 12.9947 45.5154 12.108 45.5154 11.1C45.5154 10.092 45.6834 9.21 46.0194 8.454C46.3554 7.68867 46.8361 7.096 47.4614 6.676C48.0961 6.24667 48.8474 6.032 49.7154 6.032C50.5834 6.032 51.3301 6.24667 51.9554 6.676C52.5808 7.096 53.0614 7.68867 53.3974 8.454C53.7334 9.21 53.9014 10.092 53.9014 11.1C53.9014 12.108 53.7334 12.9947 53.3974 13.76C53.0614 14.516 52.5808 15.1087 51.9554 15.538C51.3301 15.958 50.5834 16.168 49.7154 16.168ZM49.7154 15.132C50.2848 15.132 50.7934 14.9733 51.2414 14.656C51.6988 14.3293 52.0534 13.8673 52.3054 13.27C52.5668 12.6633 52.6974 11.94 52.6974 11.1C52.6974 10.26 52.5668 9.54133 52.3054 8.944C52.0534 8.34667 51.6988 7.88933 51.2414 7.572C50.7934 7.24533 50.2848 7.082 49.7154 7.082C49.1368 7.082 48.6234 7.24533 48.1754 7.572C47.7274 7.88933 47.3728 8.34667 47.1114 8.944C46.8501 9.54133 46.7194 10.26 46.7194 11.1C46.7194 11.94 46.8501 12.6633 47.1114 13.27C47.3728 13.8673 47.7274 14.3293 48.1754 14.656C48.6234 14.9733 49.1368 15.132 49.7154 15.132ZM59.2355 19.08V9.056H60.2995L60.4115 10.204C60.6355 9.868 60.9529 9.56467 61.3635 9.294C61.7835 9.02333 62.3155 8.888 62.9595 8.888C63.6502 8.888 64.2522 9.04667 64.7655 9.364C65.2789 9.68133 65.6755 10.1153 65.9555 10.666C66.2449 11.2167 66.3895 11.842 66.3895 12.542C66.3895 13.242 66.2449 13.8673 65.9555 14.418C65.6755 14.9593 65.2742 15.3887 64.7515 15.706C64.2382 16.014 63.6362 16.168 62.9455 16.168C62.3762 16.168 61.8675 16.0513 61.4195 15.818C60.9809 15.5847 60.6449 15.258 60.4115 14.838V19.08H59.2355ZM62.8195 15.146C63.2862 15.146 63.6969 15.0387 64.0515 14.824C64.4062 14.6 64.6862 14.292 64.8915 13.9C65.0969 13.508 65.1995 13.0507 65.1995 12.528C65.1995 12.0053 65.0969 11.548 64.8915 11.156C64.6862 10.764 64.4062 10.4607 64.0515 10.246C63.6969 10.022 63.2862 9.91 62.8195 9.91C62.3529 9.91 61.9422 10.022 61.5875 10.246C61.2329 10.4607 60.9529 10.764 60.7475 11.156C60.5422 11.548 60.4395 12.0053 60.4395 12.528C60.4395 13.0507 60.5422 13.508 60.7475 13.9C60.9529 14.292 61.2329 14.6 61.5875 14.824C61.9422 15.0387 62.3529 15.146 62.8195 15.146ZM68.0265 16V9.056H69.0905L69.1745 10.064C69.3985 9.69067 69.6972 9.40133 70.0705 9.196C70.4439 8.99067 70.8639 8.888 71.3305 8.888C71.8812 8.888 72.3525 9 72.7445 9.224C73.1459 9.448 73.4539 9.78867 73.6685 10.246C73.9112 9.826 74.2425 9.49467 74.6625 9.252C75.0919 9.00933 75.5539 8.888 76.0485 8.888C76.8792 8.888 77.5419 9.14 78.0365 9.644C78.5312 10.1387 78.7785 10.904 78.7785 11.94V16H77.6165V12.066C77.6165 11.3473 77.4719 10.806 77.1825 10.442C76.8932 10.078 76.4779 9.896 75.9365 9.896C75.3765 9.896 74.9099 10.1153 74.5365 10.554C74.1725 10.9833 73.9905 11.5993 73.9905 12.402V16H72.8145V12.066C72.8145 11.3473 72.6699 10.806 72.3805 10.442C72.0912 10.078 71.6759 9.896 71.1345 9.896C70.5839 9.896 70.1219 10.1153 69.7485 10.554C69.3845 10.9833 69.2025 11.5993 69.2025 12.402V16H68.0265ZM84.1151 12.43V11.436H89.6591V12.43H84.1151ZM98.4419 16.168C97.7979 16.168 97.2192 16.0513 96.7059 15.818C96.1925 15.5753 95.7865 15.244 95.4879 14.824C95.1985 14.3947 95.0539 13.9 95.0539 13.34C95.0539 12.7427 95.2265 12.206 95.5719 11.73C95.9265 11.254 96.3932 10.9367 96.9719 10.778C96.4399 10.6007 96.0292 10.316 95.7399 9.924C95.4505 9.532 95.3059 9.10267 95.3059 8.636C95.3059 8.16 95.4319 7.726 95.6839 7.334C95.9359 6.93267 96.2952 6.61533 96.7619 6.382C97.2285 6.14867 97.7885 6.032 98.4419 6.032C99.0952 6.032 99.6552 6.14867 100.122 6.382C100.589 6.61533 100.948 6.93267 101.2 7.334C101.452 7.726 101.578 8.16 101.578 8.636C101.578 9.09333 101.433 9.52267 101.144 9.924C100.855 10.316 100.444 10.6007 99.9119 10.778C100.491 10.9367 100.953 11.254 101.298 11.73C101.653 12.206 101.83 12.7427 101.83 13.34C101.83 13.9 101.681 14.3947 101.382 14.824C101.093 15.244 100.691 15.5753 100.178 15.818C99.6645 16.0513 99.0859 16.168 98.4419 16.168ZM98.4419 10.358C99.0392 10.358 99.5105 10.2087 99.8559 9.91C100.211 9.602 100.388 9.20067 100.388 8.706C100.388 8.15533 100.215 7.74 99.8699 7.46C99.5245 7.18 99.0485 7.04 98.4419 7.04C97.8352 7.04 97.3592 7.18 97.0139 7.46C96.6779 7.74 96.5099 8.15533 96.5099 8.706C96.5099 9.20067 96.6825 9.602 97.0279 9.91C97.3732 10.2087 97.8445 10.358 98.4419 10.358ZM98.4419 15.132C99.1792 15.132 99.7299 14.964 100.094 14.628C100.467 14.2827 100.654 13.83 100.654 13.27C100.654 12.6353 100.453 12.1547 100.052 11.828C99.6505 11.5013 99.1139 11.338 98.4419 11.338C97.7699 11.338 97.2332 11.5013 96.8319 11.828C96.4305 12.1547 96.2299 12.6353 96.2299 13.27C96.2299 13.83 96.4119 14.2827 96.7759 14.628C97.1492 14.964 97.7045 15.132 98.4419 15.132ZM104.089 16.07C103.855 16.07 103.659 15.9953 103.501 15.846C103.351 15.6873 103.277 15.496 103.277 15.272C103.277 15.048 103.351 14.8613 103.501 14.712C103.659 14.5533 103.855 14.474 104.089 14.474C104.313 14.474 104.499 14.5533 104.649 14.712C104.807 14.8613 104.887 15.048 104.887 15.272C104.887 15.496 104.807 15.6873 104.649 15.846C104.499 15.9953 104.313 16.07 104.089 16.07ZM109.749 16.168C108.881 16.168 108.129 15.958 107.495 15.538C106.869 15.1087 106.389 14.516 106.053 13.76C105.717 12.9947 105.549 12.108 105.549 11.1C105.549 10.092 105.717 9.21 106.053 8.454C106.389 7.68867 106.869 7.096 107.495 6.676C108.129 6.24667 108.881 6.032 109.749 6.032C110.617 6.032 111.363 6.24667 111.989 6.676C112.614 7.096 113.095 7.68867 113.431 8.454C113.767 9.21 113.935 10.092 113.935 11.1C113.935 12.108 113.767 12.9947 113.431 13.76C113.095 14.516 112.614 15.1087 111.989 15.538C111.363 15.958 110.617 16.168 109.749 16.168ZM109.749 15.132C110.318 15.132 110.827 14.9733 111.275 14.656C111.732 14.3293 112.087 13.8673 112.339 13.27C112.6 12.6633 112.731 11.94 112.731 11.1C112.731 10.26 112.6 9.54133 112.339 8.944C112.087 8.34667 111.732 7.88933 111.275 7.572C110.827 7.24533 110.318 7.082 109.749 7.082C109.17 7.082 108.657 7.24533 108.209 7.572C107.761 7.88933 107.406 8.34667 107.145 8.944C106.883 9.54133 106.753 10.26 106.753 11.1C106.753 11.94 106.883 12.6633 107.145 13.27C107.406 13.8673 107.761 14.3293 108.209 14.656C108.657 14.9733 109.17 15.132 109.749 15.132ZM119.456 16.168C118.588 16.168 117.836 15.958 117.202 15.538C116.576 15.1087 116.096 14.516 115.76 13.76C115.424 12.9947 115.256 12.108 115.256 11.1C115.256 10.092 115.424 9.21 115.76 8.454C116.096 7.68867 116.576 7.096 117.202 6.676C117.836 6.24667 118.588 6.032 119.456 6.032C120.324 6.032 121.07 6.24667 121.696 6.676C122.321 7.096 122.802 7.68867 123.138 8.454C123.474 9.21 123.642 10.092 123.642 11.1C123.642 12.108 123.474 12.9947 123.138 13.76C122.802 14.516 122.321 15.1087 121.696 15.538C121.07 15.958 120.324 16.168 119.456 16.168ZM119.456 15.132C120.025 15.132 120.534 14.9733 120.982 14.656C121.439 14.3293 121.794 13.8673 122.046 13.27C122.307 12.6633 122.438 11.94 122.438 11.1C122.438 10.26 122.307 9.54133 122.046 8.944C121.794 8.34667 121.439 7.88933 120.982 7.572C120.534 7.24533 120.025 7.082 119.456 7.082C118.877 7.082 118.364 7.24533 117.916 7.572C117.468 7.88933 117.113 8.34667 116.852 8.944C116.59 9.54133 116.46 10.26 116.46 11.1C116.46 11.94 116.59 12.6633 116.852 13.27C117.113 13.8673 117.468 14.3293 117.916 14.656C118.364 14.9733 118.877 15.132 119.456 15.132ZM128.976 19.08V9.056H130.04L130.152 10.204C130.376 9.868 130.693 9.56467 131.104 9.294C131.524 9.02333 132.056 8.888 132.7 8.888C133.39 8.888 133.992 9.04667 134.506 9.364C135.019 9.68133 135.416 10.1153 135.696 10.666C135.985 11.2167 136.13 11.842 136.13 12.542C136.13 13.242 135.985 13.8673 135.696 14.418C135.416 14.9593 135.014 15.3887 134.492 15.706C133.978 16.014 133.376 16.168 132.686 16.168C132.116 16.168 131.608 16.0513 131.16 15.818C130.721 15.5847 130.385 15.258 130.152 14.838V19.08H128.976ZM132.56 15.146C133.026 15.146 133.437 15.0387 133.792 14.824C134.146 14.6 134.426 14.292 134.632 13.9C134.837 13.508 134.94 13.0507 134.94 12.528C134.94 12.0053 134.837 11.548 134.632 11.156C134.426 10.764 134.146 10.4607 133.792 10.246C133.437 10.022 133.026 9.91 132.56 9.91C132.093 9.91 131.682 10.022 131.328 10.246C130.973 10.4607 130.693 10.764 130.488 11.156C130.282 11.548 130.18 12.0053 130.18 12.528C130.18 13.0507 130.282 13.508 130.488 13.9C130.693 14.292 130.973 14.6 131.328 14.824C131.682 15.0387 132.093 15.146 132.56 15.146ZM137.767 16V9.056H138.831L138.915 10.064C139.139 9.69067 139.437 9.40133 139.811 9.196C140.184 8.99067 140.604 8.888 141.071 8.888C141.621 8.888 142.093 9 142.485 9.224C142.886 9.448 143.194 9.78867 143.409 10.246C143.651 9.826 143.983 9.49467 144.403 9.252C144.832 9.00933 145.294 8.888 145.789 8.888C146.619 8.888 147.282 9.14 147.777 9.644C148.271 10.1387 148.519 10.904 148.519 11.94V16H147.357V12.066C147.357 11.3473 147.212 10.806 146.923 10.442C146.633 10.078 146.218 9.896 145.677 9.896C145.117 9.896 144.65 10.1153 144.277 10.554C143.913 10.9833 143.731 11.5993 143.731 12.402V16H142.555V12.066C142.555 11.3473 142.41 10.806 142.121 10.442C141.831 10.078 141.416 9.896 140.875 9.896C140.324 9.896 139.862 10.1153 139.489 10.554C139.125 10.9833 138.943 11.5993 138.943 12.402V16H137.767Z" fill="#555555"/>
<path d="M186.5 3C183.398 3 180.875 5.52338 180.875 8.625C180.875 9.67294 181.165 10.6956 181.715 11.5829L186.18 18.7784C186.265 18.9163 186.416 19 186.578 19C186.579 19 186.581 19 186.582 19C186.745 18.9987 186.896 18.9124 186.98 18.7721L191.332 11.5069C191.851 10.6384 192.125 9.64184 192.125 8.625C192.125 5.52338 189.602 3 186.5 3ZM190.527 11.0256L186.571 17.6308L182.511 11.0889C182.054 10.3504 181.806 9.49844 181.806 8.625C181.806 6.04031 183.915 3.93125 186.5 3.93125C189.085 3.93125 191.191 6.04031 191.191 8.625C191.191 9.47253 190.959 10.3027 190.527 11.0256Z" fill="black"/>
<path d="M186.5 5.8125C184.949 5.8125 183.688 7.07419 183.688 8.625C183.688 10.1659 184.929 11.4375 186.5 11.4375C188.091 11.4375 189.312 10.149 189.312 8.625C189.312 7.07419 188.051 5.8125 186.5 5.8125ZM186.5 10.5062C185.461 10.5062 184.619 9.66147 184.619 8.625C184.619 7.59113 185.466 6.74375 186.5 6.74375C187.534 6.74375 188.378 7.59113 188.378 8.625C188.378 9.64634 187.556 10.5062 186.5 10.5062Z" fill="black"/>
<path d="M203.536 16V6.2H206.546C208.273 6.2 209.542 6.63867 210.354 7.516C211.175 8.39333 211.586 9.59733 211.586 11.128C211.586 12.6307 211.175 13.8207 210.354 14.698C209.542 15.566 208.273 16 206.546 16H203.536ZM204.712 15.02H206.518C207.47 15.02 208.226 14.866 208.786 14.558C209.355 14.2407 209.761 13.7927 210.004 13.214C210.247 12.626 210.368 11.9307 210.368 11.128C210.368 10.3067 210.247 9.602 210.004 9.014C209.761 8.426 209.355 7.97333 208.786 7.656C208.226 7.33867 207.47 7.18 206.518 7.18H204.712V15.02ZM213.214 16V5.92H214.39V10.246C214.623 9.81667 214.955 9.48533 215.384 9.252C215.813 9.00933 216.28 8.888 216.784 8.888C217.587 8.888 218.231 9.14 218.716 9.644C219.201 10.1387 219.444 10.904 219.444 11.94V16H218.282V12.066C218.282 10.6193 217.699 9.896 216.532 9.896C215.925 9.896 215.417 10.1153 215.006 10.554C214.595 10.9833 214.39 11.5993 214.39 12.402V16H213.214ZM223.536 16.168C222.957 16.168 222.476 16.07 222.094 15.874C221.711 15.678 221.426 15.4167 221.24 15.09C221.053 14.7633 220.96 14.4087 220.96 14.026C220.96 13.3167 221.23 12.7707 221.772 12.388C222.313 12.0053 223.05 11.814 223.984 11.814H225.86V11.73C225.86 11.1233 225.701 10.666 225.384 10.358C225.066 10.0407 224.642 9.882 224.11 9.882C223.652 9.882 223.256 9.99867 222.92 10.232C222.593 10.456 222.388 10.7873 222.304 11.226H221.1C221.146 10.722 221.314 10.2973 221.604 9.952C221.902 9.60667 222.271 9.34533 222.71 9.168C223.148 8.98133 223.615 8.888 224.11 8.888C225.08 8.888 225.808 9.14933 226.294 9.672C226.788 10.1853 227.036 10.8713 227.036 11.73V16H225.986L225.916 14.754C225.72 15.146 225.43 15.482 225.048 15.762C224.674 16.0327 224.17 16.168 223.536 16.168ZM223.718 15.174C224.166 15.174 224.548 15.0573 224.866 14.824C225.192 14.5907 225.44 14.2873 225.608 13.914C225.776 13.5407 225.86 13.1487 225.86 12.738V12.724H224.082C223.391 12.724 222.901 12.8453 222.612 13.088C222.332 13.3213 222.192 13.6153 222.192 13.97C222.192 14.334 222.322 14.628 222.584 14.852C222.854 15.0667 223.232 15.174 223.718 15.174ZM228.8 16V5.92H229.976V11.982L232.818 9.056H234.26L231.18 12.192L234.652 16H233.154L229.976 12.402V16H228.8ZM238.11 16.168C237.531 16.168 237.051 16.07 236.668 15.874C236.285 15.678 236.001 15.4167 235.814 15.09C235.627 14.7633 235.534 14.4087 235.534 14.026C235.534 13.3167 235.805 12.7707 236.346 12.388C236.887 12.0053 237.625 11.814 238.558 11.814H240.434V11.73C240.434 11.1233 240.275 10.666 239.958 10.358C239.641 10.0407 239.216 9.882 238.684 9.882C238.227 9.882 237.83 9.99867 237.494 10.232C237.167 10.456 236.962 10.7873 236.878 11.226H235.674C235.721 10.722 235.889 10.2973 236.178 9.952C236.477 9.60667 236.845 9.34533 237.284 9.168C237.723 8.98133 238.189 8.888 238.684 8.888C239.655 8.888 240.383 9.14933 240.868 9.672C241.363 10.1853 241.61 10.8713 241.61 11.73V16H240.56L240.49 14.754C240.294 15.146 240.005 15.482 239.622 15.762C239.249 16.0327 238.745 16.168 238.11 16.168ZM238.292 15.174C238.74 15.174 239.123 15.0573 239.44 14.824C239.767 14.5907 240.014 14.2873 240.182 13.914C240.35 13.5407 240.434 13.1487 240.434 12.738V12.724H238.656C237.965 12.724 237.475 12.8453 237.186 13.088C236.906 13.3213 236.766 13.6153 236.766 13.97C236.766 14.334 236.897 14.628 237.158 14.852C237.429 15.0667 237.807 15.174 238.292 15.174ZM247.149 16V6.2H250.593C251.284 6.2 251.853 6.312 252.301 6.536C252.759 6.75067 253.099 7.04933 253.323 7.432C253.547 7.80533 253.659 8.22533 253.659 8.692C253.659 9.32667 253.487 9.826 253.141 10.19C252.805 10.554 252.399 10.806 251.923 10.946C252.287 11.0113 252.619 11.156 252.917 11.38C253.216 11.604 253.449 11.884 253.617 12.22C253.795 12.556 253.883 12.9247 253.883 13.326C253.883 13.8207 253.762 14.2733 253.519 14.684C253.277 15.0853 252.917 15.4073 252.441 15.65C251.965 15.8833 251.387 16 250.705 16H247.149ZM248.325 10.484H250.509C251.135 10.484 251.615 10.3393 251.951 10.05C252.287 9.75133 252.455 9.34067 252.455 8.818C252.455 8.32333 252.287 7.92667 251.951 7.628C251.625 7.32933 251.13 7.18 250.467 7.18H248.325V10.484ZM248.325 15.02H250.579C251.251 15.02 251.769 14.866 252.133 14.558C252.497 14.2407 252.679 13.802 252.679 13.242C252.679 12.6913 252.488 12.2527 252.105 11.926C251.723 11.59 251.205 11.422 250.551 11.422H248.325V15.02ZM257.811 16.168C257.232 16.168 256.752 16.07 256.369 15.874C255.986 15.678 255.702 15.4167 255.515 15.09C255.328 14.7633 255.235 14.4087 255.235 14.026C255.235 13.3167 255.506 12.7707 256.047 12.388C256.588 12.0053 257.326 11.814 258.259 11.814H260.135V11.73C260.135 11.1233 259.976 10.666 259.659 10.358C259.342 10.0407 258.917 9.882 258.385 9.882C257.928 9.882 257.531 9.99867 257.195 10.232C256.868 10.456 256.663 10.7873 256.579 11.226H255.375C255.422 10.722 255.59 10.2973 255.879 9.952C256.178 9.60667 256.546 9.34533 256.985 9.168C257.424 8.98133 257.89 8.888 258.385 8.888C259.356 8.888 260.084 9.14933 260.569 9.672C261.064 10.1853 261.311 10.8713 261.311 11.73V16H260.261L260.191 14.754C259.995 15.146 259.706 15.482 259.323 15.762C258.95 16.0327 258.446 16.168 257.811 16.168ZM257.993 15.174C258.441 15.174 258.824 15.0573 259.141 14.824C259.468 14.5907 259.715 14.2873 259.883 13.914C260.051 13.5407 260.135 13.1487 260.135 12.738V12.724H258.357C257.666 12.724 257.176 12.8453 256.887 13.088C256.607 13.3213 256.467 13.6153 256.467 13.97C256.467 14.334 256.598 14.628 256.859 14.852C257.13 15.0667 257.508 15.174 257.993 15.174ZM263.075 16V9.056H264.139L264.209 10.302C264.433 9.86333 264.755 9.518 265.175 9.266C265.595 9.014 266.071 8.888 266.603 8.888C267.425 8.888 268.078 9.14 268.563 9.644C269.058 10.1387 269.305 10.904 269.305 11.94V16H268.129V12.066C268.129 10.6193 267.532 9.896 266.337 9.896C265.74 9.896 265.241 10.1153 264.839 10.554C264.447 10.9833 264.251 11.5993 264.251 12.402V16H263.075ZM273.831 13.816C273.439 13.816 273.08 13.7647 272.753 13.662L272.053 14.32C272.156 14.3947 272.282 14.46 272.431 14.516C272.59 14.5627 272.814 14.6093 273.103 14.656C273.392 14.6933 273.798 14.7353 274.321 14.782C275.254 14.8473 275.922 15.062 276.323 15.426C276.724 15.79 276.925 16.266 276.925 16.854C276.925 17.2553 276.813 17.638 276.589 18.002C276.374 18.366 276.038 18.6647 275.581 18.898C275.133 19.1313 274.554 19.248 273.845 19.248C273.22 19.248 272.664 19.164 272.179 18.996C271.694 18.8373 271.316 18.59 271.045 18.254C270.774 17.9273 270.639 17.512 270.639 17.008C270.639 16.7467 270.709 16.462 270.849 16.154C270.989 15.8553 271.25 15.5707 271.633 15.3C271.428 15.216 271.25 15.1273 271.101 15.034C270.961 14.9313 270.83 14.8193 270.709 14.698V14.376L271.899 13.2C271.348 12.7333 271.073 12.1173 271.073 11.352C271.073 10.8947 271.18 10.4793 271.395 10.106C271.61 9.73267 271.922 9.43867 272.333 9.224C272.744 9 273.243 8.888 273.831 8.888C274.232 8.888 274.596 8.944 274.923 9.056H277.485V9.938L276.183 9.994C276.454 10.386 276.589 10.8387 276.589 11.352C276.589 11.8093 276.477 12.2247 276.253 12.598C276.038 12.9713 275.726 13.27 275.315 13.494C274.914 13.7087 274.419 13.816 273.831 13.816ZM273.831 12.85C274.326 12.85 274.718 12.724 275.007 12.472C275.306 12.2107 275.455 11.8373 275.455 11.352C275.455 10.876 275.306 10.512 275.007 10.26C274.718 9.99867 274.326 9.868 273.831 9.868C273.327 9.868 272.926 9.99867 272.627 10.26C272.338 10.512 272.193 10.876 272.193 11.352C272.193 11.8373 272.338 12.2107 272.627 12.472C272.926 12.724 273.327 12.85 273.831 12.85ZM271.787 16.896C271.787 17.3627 271.983 17.708 272.375 17.932C272.767 18.1653 273.257 18.282 273.845 18.282C274.424 18.282 274.886 18.156 275.231 17.904C275.586 17.652 275.763 17.316 275.763 16.896C275.763 16.5973 275.642 16.336 275.399 16.112C275.156 15.8973 274.708 15.7713 274.055 15.734C273.542 15.6967 273.098 15.65 272.725 15.594C272.342 15.7993 272.09 16.0187 271.969 16.252C271.848 16.4947 271.787 16.7093 271.787 16.896ZM278.812 16V5.92H279.988V16H278.812ZM284.225 16.168C283.647 16.168 283.166 16.07 282.783 15.874C282.401 15.678 282.116 15.4167 281.929 15.09C281.743 14.7633 281.649 14.4087 281.649 14.026C281.649 13.3167 281.92 12.7707 282.461 12.388C283.003 12.0053 283.74 11.814 284.673 11.814H286.549V11.73C286.549 11.1233 286.391 10.666 286.073 10.358C285.756 10.0407 285.331 9.882 284.799 9.882C284.342 9.882 283.945 9.99867 283.609 10.232C283.283 10.456 283.077 10.7873 282.993 11.226H281.789C281.836 10.722 282.004 10.2973 282.293 9.952C282.592 9.60667 282.961 9.34533 283.399 9.168C283.838 8.98133 284.305 8.888 284.799 8.888C285.77 8.888 286.498 9.14933 286.983 9.672C287.478 10.1853 287.725 10.8713 287.725 11.73V16H286.675L286.605 14.754C286.409 15.146 286.12 15.482 285.737 15.762C285.364 16.0327 284.86 16.168 284.225 16.168ZM284.407 15.174C284.855 15.174 285.238 15.0573 285.555 14.824C285.882 14.5907 286.129 14.2873 286.297 13.914C286.465 13.5407 286.549 13.1487 286.549 12.738V12.724H284.771C284.081 12.724 283.591 12.8453 283.301 13.088C283.021 13.3213 282.881 13.6153 282.881 13.97C282.881 14.334 283.012 14.628 283.273 14.852C283.544 15.0667 283.922 15.174 284.407 15.174ZM292.639 16.168C291.949 16.168 291.342 16.0093 290.819 15.692C290.306 15.3747 289.905 14.9407 289.615 14.39C289.335 13.8393 289.195 13.214 289.195 12.514C289.195 11.814 289.34 11.1933 289.629 10.652C289.919 10.1013 290.32 9.672 290.833 9.364C291.347 9.04667 291.953 8.888 292.653 8.888C293.223 8.888 293.727 9.00467 294.165 9.238C294.604 9.47133 294.945 9.798 295.187 10.218V5.92H296.363V16H295.299L295.187 14.852C294.963 15.188 294.641 15.4913 294.221 15.762C293.801 16.0327 293.274 16.168 292.639 16.168ZM292.765 15.146C293.232 15.146 293.643 15.0387 293.997 14.824C294.361 14.6 294.641 14.292 294.837 13.9C295.043 13.508 295.145 13.0507 295.145 12.528C295.145 12.0053 295.043 11.548 294.837 11.156C294.641 10.764 294.361 10.4607 293.997 10.246C293.643 10.022 293.232 9.91 292.765 9.91C292.308 9.91 291.897 10.022 291.533 10.246C291.179 10.4607 290.899 10.764 290.693 11.156C290.497 11.548 290.399 12.0053 290.399 12.528C290.399 13.0507 290.497 13.508 290.693 13.9C290.899 14.292 291.179 14.6 291.533 14.824C291.897 15.0387 292.308 15.146 292.765 15.146ZM301.402 16.168C300.74 16.168 300.152 16.0187 299.638 15.72C299.125 15.412 298.719 14.9873 298.42 14.446C298.131 13.9047 297.986 13.2653 297.986 12.528C297.986 11.8 298.131 11.1653 298.42 10.624C298.71 10.0733 299.111 9.64867 299.624 9.35C300.147 9.042 300.749 8.888 301.43 8.888C302.102 8.888 302.681 9.042 303.166 9.35C303.661 9.64867 304.039 10.0453 304.3 10.54C304.562 11.0347 304.692 11.5667 304.692 12.136C304.692 12.2387 304.688 12.3413 304.678 12.444C304.678 12.5467 304.678 12.6633 304.678 12.794H299.148C299.176 13.326 299.298 13.7693 299.512 14.124C299.736 14.4693 300.012 14.7307 300.338 14.908C300.674 15.0853 301.029 15.174 301.402 15.174C301.888 15.174 302.294 15.062 302.62 14.838C302.947 14.614 303.185 14.3107 303.334 13.928H304.496C304.31 14.572 303.95 15.1087 303.418 15.538C302.896 15.958 302.224 16.168 301.402 16.168ZM301.402 9.882C300.842 9.882 300.343 10.0547 299.904 10.4C299.475 10.736 299.228 11.2307 299.162 11.884H303.53C303.502 11.2587 303.288 10.7687 302.886 10.414C302.485 10.0593 301.99 9.882 301.402 9.882ZM308.911 16.168C308.08 16.168 307.39 15.958 306.839 15.538C306.288 15.118 305.966 14.5487 305.873 13.83H307.077C307.152 14.194 307.343 14.5113 307.651 14.782C307.968 15.0433 308.393 15.174 308.925 15.174C309.42 15.174 309.784 15.0713 310.017 14.866C310.25 14.6513 310.367 14.3993 310.367 14.11C310.367 13.69 310.213 13.41 309.905 13.27C309.606 13.13 309.182 13.004 308.631 12.892C308.258 12.8173 307.884 12.71 307.511 12.57C307.138 12.43 306.825 12.234 306.573 11.982C306.321 11.7207 306.195 11.38 306.195 10.96C306.195 10.3533 306.419 9.85867 306.867 9.476C307.324 9.084 307.94 8.888 308.715 8.888C309.452 8.888 310.054 9.07467 310.521 9.448C310.997 9.812 311.272 10.3347 311.347 11.016H310.185C310.138 10.6613 309.984 10.386 309.723 10.19C309.471 9.98467 309.13 9.882 308.701 9.882C308.281 9.882 307.954 9.97067 307.721 10.148C307.497 10.3253 307.385 10.5587 307.385 10.848C307.385 11.128 307.53 11.3473 307.819 11.506C308.118 11.6647 308.519 11.8 309.023 11.912C309.452 12.0053 309.858 12.122 310.241 12.262C310.633 12.3927 310.95 12.5933 311.193 12.864C311.445 13.1253 311.571 13.508 311.571 14.012C311.58 14.6373 311.342 15.1553 310.857 15.566C310.381 15.9673 309.732 16.168 308.911 16.168ZM313.251 16V5.92H314.427V10.246C314.66 9.81667 314.992 9.48533 315.421 9.252C315.85 9.00933 316.317 8.888 316.821 8.888C317.624 8.888 318.268 9.14 318.753 9.644C319.238 10.1387 319.481 10.904 319.481 11.94V16H318.319V12.066C318.319 10.6193 317.736 9.896 316.569 9.896C315.962 9.896 315.454 10.1153 315.043 10.554C314.632 10.9833 314.427 11.5993 314.427 12.402V16H313.251Z" fill="#555555"/>
<defs>
<clipPath id="clip0_28_254">
<rect width="16" height="16" fill="white" transform="translate(0.5 3)"/>
</clipPath>
</defs>
</svg>
